<svg width='100%' height='100%' viewBox="0 0 36 36" fill='none' xmlns="http://www.w3.org/2000/svg">
    <path d="M10.7 16.4667L18.0333 4.66666L25.3667 16.4667H10.7ZM25.5333 31.3333C23.8889 31.3333 22.5111 30.7778 21.4 29.6667C20.2889 28.5555 19.7333 27.1778 19.7333 25.5333C19.7333 23.8889 20.2889 22.5111 21.4 21.4C22.5111 20.2889 23.8889 19.7333 25.5333 19.7333C27.1778 19.7333 28.5556 20.2889 29.6667 21.4C30.7778 22.5111 31.3333 23.8889 31.3333 25.5333C31.3333 27.1778 30.7778 28.5555 29.6667 29.6667C28.5556 30.7778 27.1778 31.3333 25.5333 31.3333ZM6 30.5V20.3667H16.1333V30.5H6ZM25.5333 29.3333C26.6 29.3333 27.5 28.9667 28.2333 28.2333C28.9667 27.5 29.3333 26.6 29.3333 25.5333C29.3333 24.4667 28.9667 23.5667 28.2333 22.8333C27.5 22.1 26.6 21.7333 25.5333 21.7333C24.4667 21.7333 23.5667 22.1 22.8333 22.8333C22.1 23.5667 21.7333 24.4667 21.7333 25.5333C21.7333 26.6 22.1 27.5 22.8333 28.2333C23.5667 28.9667 24.4667 29.3333 25.5333 29.3333ZM8 28.5H14.1333V22.3667H8V28.5ZM14.3 14.4667H21.7667L18.0333 8.43332L14.3 14.4667Z" fill='#66b2ff' />
</svg>